
<svg xmlns="http://www.w3.org/2000/svg" width="200" height="200" viewBox="0 0 800 800">
	<g fill="#fff">
		<path d="M364.17 190.04c2.02 1.52 7.08-1.89 8.52 1.23-1.73 6.16 5.66 5.33 8.14 8.89 2.23 2.03 3 5.11 4.44 7.68 10.85.24 21.72.3 32.58.08 1.17-5.31.71-10.7-.85-15.87 4.57.03 9.22-.39 13.79.11 3.35 2.52 1.68 8.67-2.69 8.08-.09 1.72-.88 4.54 1.9 3.76 3.88-1.21.11 5.34 4 4.02 2.79.88 1.77-2.23 2.14-3.88 1.65-.37 4.75.66 3.88-2.14.89-2.85-2.32-1.76-3.99-2.14-.12-2.61-.12-5.22.02-7.83 4.62-.03 9.28-.2 13.91.04.11 4.87-2.43 10.23.24 14.77.94 3.03 4.33 4.27 5.73 6.97-4.54 4.42-11.03 2.87-16.82 3.27l-.25 4.89c-2.43 0-7.29 0-9.72.01l-.28-4.93c-14.54.07-29.1-.38-43.62.12-1.99 5.52-5.94 11.03-12.04 12.15 2.96 8.02-4.72 5.46-9.07 5.6 2.75-5.66-3.59-5.74-6.1-7.98-5.97-1.89-5.16-12.33-12.97-10.11-.08-2.93-.19-5.8.01-8.71 5.92 2.6 6.5-3.02 8.94-6.11 1.5-6.11 12.82-3.79 10.16-11.97m3.06 4.04c.34 4.88-5.56 4.35-8.27 6.86-5.47 2.07-2.82 12.85-10.91 10.19-.73 3.62.77 5.75 5.62 4.11 1.44 4.38 3.29 9.45 8.36 10.66 1.72 1.06 5.56 1.14 4.96 4.09-1.34 4.04 7.87 1.93 3.24-2.65 6.69-1.26 11.58-6.65 12.98-13.19 16.19-.42 32.43-.06 48.65-.1-5.24 6.85 9.5 6.85 4.28.01l14.98-.12c.05-2.63-3.85-2.52-4.08-4.97-1.24-4.61-.96-9.29-.12-13.92-2.65-.13-5.29-.14-7.92-.04-1.4 4.97 9.47-1.8 4.03 6.99 3.38 6.17-1.27 4.64-3.89 5.14-.49 2.6.99 7.31-5.14 3.89-6.28 3.42-4.6-1.29-5.14-3.89-2.56-.5-7.42 1.03-3.89-5.14-3.54-6.31 1.41-4.61 4-5.12 1.28-4.46-7.11.19-8.01-1.86 1.12 5.37 1.11 10.62-1.07 15.9-12.2.16-24.41.2-36.59-.08-2.16-6.28-5.99-12.1-13.06-13.13-.11-2.23-.07-4.7-3.01-3.63z" opacity=".94"/>
		<path d="M367.3 201.35c9.53-1.47 16.13 12.43 8.98 18.93-5.1 5.55-15.83 4.33-18.3-3.24-3.91-6.82 2.07-15.17 9.32-15.69m0 2.98c-4.95.94-9.37 6.03-7 11.33 1.93 3.55 6.78 6.99 10.73 4.37 5.75-1.36 6.13-8.46 3.77-12.87-2.32-1.05-4.75-3.91-7.5-2.83zm-242.29-1.3c9.32-.01 18.65-.18 27.97.03 0 .72.01 2.18.01 2.91-9.33.01-18.65.18-27.97-.03 0-.72-.01-2.18-.01-2.91zm41 0c27.32-.04 54.65-.08 81.97.02 0 .73.01 2.19.01 2.92-27.33.04-54.65.08-81.97-.02 0-.73-.01-2.19-.01-2.92zm92 0c9.32-.01 18.65-.18 27.97.03 0 .72.01 2.18.01 2.91-9.33.01-18.65.18-27.97-.03 0-.72-.01-2.18-.01-2.91zm257.21.11c8.91-.24 17.84-.23 26.76-.09 0 .73.01 2.19.01 2.92-9.35 0-18.7.19-28.04-.03-.1-1.19.32-2.12 1.27-2.8zm36.79-.11c27.32-.04 54.65-.08 81.97.02 0 .73.01 2.19.01 2.92-27.33.04-54.65.08-81.97-.02 0-.73-.01-2.19-.01-2.92zm96.21.14c8.57-.31 17.16-.24 25.75-.13 1.52-.14 2.14 1.66 2.12 2.9-9.03.05-18.05.21-27.06.01-1.66.17-2.73-2.17-.81-2.78zm-134.2 8.86c78.32-.05 156.64-.05 234.96 0v2.94c-78.32.05-156.64.05-234.96 0v-2.94zm-464.01 1c78.99-.04 157.98-.07 236.97.02 0 .73.01 2.19.01 2.92-78.99.04-157.98.07-236.97-.02 0-.73-.01-2.19-.01-2.92zm180 8c2.5-.02 7.5-.04 10-.06 5.44-4.34 6.15 1.47 3.77 2.9-4.59.13-9.18.3-13.76.07 0-.73-.01-2.18-.01-2.91zm20.9.03c11.69-.12 23.38-.1 35.07-.03v2.94c-10.98 0-21.97.18-32.95-.02-1.53.13-2.16-1.65-2.12-2.89zm263.11-.03c11.65-.07 23.3-.07 34.96 0v2.94c-11.66.07-23.31.07-34.96 0v-2.94zm41.99 0c4.63-.04 9.32-.2 13.97.03 0 .73 0 2.18.01 2.91-4.68.02-9.32.2-13.97-.03 0-.73 0-2.18-.01-2.91zM403.36 244.4c2.8-2.1 3.72 3.37 6.34 2.15 2.65-1 5.32 1.25 6 3.75.66 7.6.03 15.25.4 22.87 3.39-2.65 3.52-10.3 9.91-7.2 2.03-.26 5 2.3 3.33 4.33-4.66 9.18-6.16 21.63-16.22 26.92-1.45 4.17 6.21 4.76 2.9 9.78.44 3.02.22 6.17-1.24 8.87-8.53.2-17.07.29-25.59 0-3.09-5.32-.56-12.83-.21-18.88.58-4.18-2.89-7.69-1.93-11.98-.13-8.35-.1-16.69-.05-25.03-.06-3.4 3.57-7.04 6.96-5.19-1.52-3.86.65-6.49 3.33-8.45 2.27 0 4.29-.65 6.07-1.94m.81 2.79c-2.78 1.92.21 6.45-1.19 8.81-1.47 2.72 3.14 11.85-2.93 9.98-.21-5.69.06-11.38-.1-17.06-2.8-.26-4.88 3.39-2.94 6.07-.01 3.75-.03 11.25-.05 15-4.68 1.54-2.57-4.39-3-6.99 4.3-3.18-3.72-8.37-3.91-3.97-.16 8.65-.1 17.32 0 25.98-.65 5.23 3.29 9.6 2.06 14.92 5.9.28 11.81.05 17.72.01-2.57-5.47 2.83-4.76 4.94-7.17 5.65-5.86 7.54-14.17 10.63-21.45.75-1.12.55-2.45-.54-3.25-4.83 1.58-5 7.99-9.11 10.61-3.67.88-8.05 1.3-10.46 4.58-.76 2.18-1.24 4.44-1.49 6.74-4.14.3-2.5-4.48-1.43-6.7 1.2-4.86 6.95-5.08 10.54-7.44.18-8.54.24-17.09-.1-25.62-.93-2.39-2.64-.03-3.64.97-.19 5.25-.26 10.51-.21 15.78-5.64 1.75-1.49-6.73-2.96-9-1.56-2.46 2.53-10.3-1.83-10.8m-13.15 55.85v9.91c7.31.19 14.64.06 21.96.01v-9.91c-7.32-.2-14.65-.07-21.96-.01z" opacity=".94"/>
		<path d="M176.24 255.58c7.24.55 14.55.57 21.75-.53 20.05.18 40.07 1.49 60.01 3.96 16.1 2.49 32.47 4 48.76 2.57 14.99.86 29.98-1.18 44.91-2.17 8.54.68 8.7 11.01 9.55 17.51.67 8.18 2.43 17.35-1.21 25.09-4.79 7.37-11.77 12.9-17.78 19.24-.04.39-.11 1.15-.15 1.53 19.11 7.71 39.26 13.08 59.92 14.19 21.73-.27 42.85-6.2 62.91-14.19-.03-.37-.11-1.11-.15-1.48-3.35-1.91-6.01-4.81-8.12-8-4.49-4.62-9.36-9.11-11.58-15.36-.13-11.63-1.01-23.6 3.09-34.76 3.1-2.8 7.37-5.43 11.77-3.94 22.21 2.9 44.66 3.2 67.02 2.56 42.09-5.62 84.78-9.48 127.07-3.88 15.35 1.49 30.12 6.27 45.34 8.55 19.43 3.02 39.11 4.17 58.7 2.53-2.51 5.56-7.44 9.63-10.04 15.05 1.46 6.28 7.59 10.5 11.1 15.84-16.01 1.22-32.06 1.36-48.13 1.08-16.8-1.27-33.03-6.11-49.69-8.3-24.92-3.5-50.18-6.15-75.3-3.61-17.1 1.22-33.84 5.56-50.99 6.07-19.92 2.25-40.01.32-59.86-1.81-3.08 3.22-5.88 6.87-8.11 10.74 1.33 7.25 3.73 14.44 2.93 21.94-4.66 48.91-9.38 97.81-14.16 146.71-17.66 6.17-34.88 13.94-52.57 19.83-17.42-6.32-34.69-13.1-51.98-19.79-5.9-50.4-9.41-101.2-15.05-151.68.9-5.95 3.02-11.83 3.51-17.79-2.35-3.04-5.05-5.79-7.15-9-14.88-.67-29.66 2.49-44.56 1.75-27.86.89-54.97-7.06-82.73-7.68-12.98.26-26.17-.58-38.97 1.99-9.85.16-19.81 1.81-29.33 4.24-4.28-.1-8.51.85-12.62 1.89-17.48 4.12-35.56 4.24-53.36 3.62-7.67 1.36-15.35-.71-23.06-.16 3.91-5.06 7.86-10.08 11.73-15.17-2.82-5.47-8.79-9.67-10.79-15.72 4.75-.53 9.42.42 14.12.9 12.79.53 25.6-.8 38.22-2.52 16.2-1.69 31.85-7.02 47.99-9.01 9.05-.96 18.06-1.72 27.04-2.83m13.62 2.47c4.53 9.73 10.49 18.84 16.3 27.84l5.97.08c-4.86-9.53-11.08-18.48-16.26-27.91-1.5 0-4.51-.01-6.01-.01m9.99 0c3.84 8.76 9.53 16.58 14.19 24.92 1.45 4.36 6.4 3.23 10.03 3.97-.1-.42-.29-1.25-.38-1.67-5.57-9.08-11.48-17.97-16.83-27.19-1.75-.01-5.26-.02-7.01-.03m391.5.54c-6.44.94-13.01-.09-19.42 1.16-18.07.8-35.81 5.19-53.93 5.27-19.37.17-38.77-.43-57.99-2.92-2.14-.41-8.68.1-7.99 3.86-.1 1.21 1.23 2.3 2.29 1.44 5.99-2.41 12.6.03 18.76.4 23.81 1 47.85 2.7 71.59-.39 16.66-2.03 33.22-4.99 49.99-6.02 14.14-1.46 28.23 1.15 42.35 1.74 36.48 3.19 72.04 16.99 109.07 12.16 1.99.84 6.65-.27 5.98-3.28-13.64 1.79-27.4.22-41.03-1.03-18.65-1.59-36.53-7.43-55.02-9.9-21.44-2.44-43.11-4-64.65-2.49m-421.46.44c2.49 6.63 7.35 12.24 10.53 18.61 2.69 3.64 4.46 10.63 10.72 8.31-4.11-9.44-10.49-17.71-15.45-26.72l-5.8-.2m9.03-.03c4.96 8.69 10.8 16.89 15.38 25.8 2.53.33 5.07.43 7.64.27-5.19-8.2-10.06-16.59-15.16-24.84-1.39-2.9-6.07.3-7.86-1.23m32.01-.01c5.05 8.85 10.81 17.28 16.03 26.03 1.43 3.46 6.41 2.05 9.08 2.99-5.35-9.84-11.82-19.03-17.36-28.77-2.56-.42-5.14-.51-7.75-.25m10.99 0c5.94 10.04 12.33 19.81 18.24 29.86.67-1.47 9.55 3.69 7.46-.52-6.57-9.53-12.86-19.26-18.85-29.16-1.71-.04-5.14-.13-6.85-.18m-60.98 1.03c.05.47.14 1.41.19 1.87 4.91 8.07 9.69 16.22 14.94 24.08 1.5.01 4.5.03 6 .03-5.05-8.63-10.33-17.13-15.38-25.77-1.44-.05-4.31-.16-5.75-.21m71.93.01c3.51 7.36 9.09 13.8 13.15 20.96 3.55 4.19 5.55 12.88 13.04 10.03-5.96-10.56-13.21-20.35-19.29-30.85-1.72-.03-5.18-.1-6.9-.14m11.01.16c4.89 11.32 13.52 20.76 19.36 31.63 1.71.05 5.13.14 6.85.18-6.48-10.43-13.08-20.84-20.19-30.87-1.51-.23-4.52-.7-6.02-.94m-93.02.85c4.02 9.17 10.06 17.35 15.31 25.85 1.49.02 4.48.05 5.97.07-4.1-9.13-9.8-17.53-15.3-25.85-1.5-.02-4.48-.05-5.98-.07m-7.67 1.09c-1.17.72-1.56 2.13-.43 3.1 4.64 7.44 9.05 15.01 13.55 22.54 2.97 1.13 7.36 1.2 5.33-2.46-5.03-7.69-9.45-15.76-14.73-23.28-1.25-.12-2.49-.09-3.72.1m111.65-.07c5.84 10.64 13.03 20.46 19.34 30.82l6.95.08c-3.54-7.35-9.01-13.85-13.14-20.95-3.6-4.2-5.59-13.01-13.15-9.95m94.18-.14c1.59 2.66 2.27 6.7 4.95 8.14l-.08-6.86c-1.55-.68-3.16-1.3-4.87-1.28m-211.76 1.43l-5.37.76c3.71 8.78 9.91 16.28 14.33 24.73.44.04 1.33.13 1.78.17 7.22 3.67 5.12-1.46 3.59-3.65-4.74-7.25-8.61-15.11-13.72-22.08l-.61.07m128.72-.3c6.12 10.11 12.53 20.08 19.18 29.84l5.95.08c-.87-3.89-3.88-6.88-5.71-10.33-4.07-6.02-7.31-12.6-11.59-18.45-2.62-.5-5.22-.74-7.83-1.14m73.91-.02c1.94 5.27 5.46 9.98 8.28 14.89 2.26.37 2.65-2.56 3.82-3.92-4.07-4.2-3.81-14.26-12.1-10.97m-17.59 1.32c-1.09.29-2.17.57-3.25.85 4.67 8.25 10.13 16.06 14.26 24.62 2.01.49 5.19-.82 5.65-2.8-4.21-7.09-8.38-14.23-12.55-21.35-.26-2.16-2.59-1.8-4.11-1.32m6.62-.34c4.21 6.91 8.08 14.03 12.24 20.99 2.3-.14 4.84-2.59 4.83-4.94-3.06-5.3-6.68-10.31-9.29-15.86-2.58-.35-5.18-.42-7.78-.19m265.42.53c-20.23 1.61-40.23 5.16-60.4 7.26-25.6 1.04-51.14-.66-76.64-2.5-3.08.65-3.96 3.08-2.11 5.6 4.36-1.35 8.99-1.11 13.47-.33 14.4 1.96 29 .66 43.41 2.22 31.89 1.4 63.03-8.95 94.93-7.82 22.23.62 44.56 2.56 66.29 7.66 21.84 4.7 44.29 9.33 66.7 6.53 4.89 2.18 6.01-2.55 8.05-5.21-34.08 4.59-67.57-6.02-101.02-11-17.49-1.65-35.11-4.06-52.68-2.41m-467.04.85c-1.56.77-5.22-.23-4.21 2.53 4.69 7.64 9.76 15.06 14.24 22.84 1.88.73 7.29-.25 4.95-3.02-4.88-7.42-9.09-15.28-14.29-22.49l-.69.14m150.65-.41c5.92 9.19 11.31 18.72 17.23 27.9 2.1-.09 8.86 2.03 6.17-1.22-5.59-8.79-10.57-18.01-16.52-26.53-1.72-.04-5.16-.11-6.88-.15m10.92.05c4.3 8.63 10.03 16.71 15.15 24.94.19 3.66 5.02 3.97 6.86 1.89-4.86-9.19-10.48-17.99-16.04-26.75l-5.97-.08m10 .01c4.79 9.22 10.54 18.13 16.19 26.93 1.52 0 4.55 0 6.07-.01-4.53-9.17-10.78-17.56-15.42-26.74-1.71-.05-5.13-.14-6.84-.18m10.05-.05c5.05 8.64 10.34 17.14 15.39 25.78 1.46.05 4.37.14 5.83.19-4.05-8.95-9.53-17.22-14.46-25.72-1.69-.06-5.07-.18-6.76-.25m-194.7 3.14c-1.82 1.41-1.57 3.04.75 4.89 4.16 6.57 8.33 13.13 12.27 19.84 2.3.1 4.5-.87 6.78-1.08-3.58-8.35-9.74-15.67-14.2-23.68-1.4.01-4.2.02-5.6.03m-11.35 1.9c4.3 8.61 10.7 16.31 15.38 24.8 1.93-.28 3.84-.77 5.78-1.04-3.52-8.42-10.07-15.45-14.26-23.62-1.73-.03-5.18-.1-6.9-.14m346.27-.13c-1.42 9.87-2.2 20.26-.04 30.02 4.62 7.42 11.56 13.25 17.9 19.2-.32-5.45-2.66-10.6-2.99-16.03 2.12-3.43 4.76-6.51 6.91-9.92-8.24-4.87-15.95-11.21-19.76-20.26-.31-1.19-.8-2.51-2.02-3.01m-355.27 1.14c4.01 8.6 10.36 16.14 14.43 24.79 2.62.94 4.83.62 6.63-.97-5.12-7.87-10.28-15.72-15.07-23.79-1.5-.01-4.49-.03-5.99-.03m262.34.13c-2.85 10.04-11.67 16.65-20.11 22.01 1.36 3.87 5.17 6.24 6.87 9.88-.69 5.4-3 10.58-2.96 16.07 5.07-4.24 9.67-9.13 14.02-14.1 9.05-9.01 3.77-22.79 3.86-34.08-.42.06-1.26.16-1.68.22m-301.29.84c1.22 4.76 6.02 7.71 8.08 12.05.38 2.15-3.15 3.4-1.72 5.66 2.72 4.31 4.92 10.95 11.83 8.26-4.08-9.08-10.49-17.1-15.25-25.9-.74-.02-2.2-.05-2.94-.07m28.94.03c4.21 8.49 10.32 16.15 14.44 24.76 1.7.05 5.11.13 6.81.17-3.73-8.72-9.83-16.43-14.24-24.9-1.75 0-5.26-.02-7.01-.03m504.48.52c-21.81 2.19-43.4 6.57-65.34 7.38-13.94-2.11-28.12.2-42.07-1.69-8.05-.44-16.03-1.9-24.12-1.15 2.37 3.06 5.32 6.36 9.84 5.38 8.42 1 16.87 1.66 25.36 1.63 28.12 3.42 56.18-1.23 83.99-5.11 19.28-2.82 38.74-2.23 58.07-.31 24.27 1.69 47.84 8.14 71.93 11.21 13.61 2.08 27.41.81 41.12 1.03-.56-1.73-1.1-4.65-3.15-4.92-21.68 2.65-43.6-1.03-64.88-5.2-29.65-7.18-60.29-10.5-90.75-8.25m-526.42.45c4.9 8.39 10.06 16.65 15.26 24.87l6.94.08c-3.02-8.27-8.96-15.21-13.07-22.98-1.21-3.92-6.64-.8-9.13-1.97m11.96.03c3.64 8.43 9.36 16.05 14.2 23.91l6.94.08c-4.33-8.21-9.58-15.88-14.16-23.95l-6.98-.04m518.46 7.5c-31.11 2.39-61.99 10.69-93.34 6.56-11.08.12-22.12-.5-33.12-1.85.7 2.56 3.95 3.59 6.19 4.62 24.3 3.88 49.14 4 73.59 1.56 21.69-2.93 43.39-6.72 65.35-6.46 27.94.94 55.76 4.78 83.06 10.82 19.51 3.95 39.32 2.45 59.03 2.15-.17-2.23-2.27-4.1-4.16-4.94-39.18 5.37-77.24-8.69-116.01-11.79-13.49-.96-27.08-2.09-40.59-.67M58.25 291.25c-1.42 1.91-2.84 3.83-4.32 5.7 2.68.1 5.37.12 8.06.07l-3.08-6.12-.66.35m281.74 33.82c3.75 46.67 8.93 93.27 12.89 139.94-2.25 4.59 2.58 7.19 6.08 7.03-.25-18.78-.51-39.47 10.27-55.82 7.96-12.71 23.85-18.86 38.45-17.06.86 1.77 1.43 3.79 3.07 5.04-.56-4.13 1.58-7.97 4.91-10.11 5.4 8.77 8.76 18.82 15.54 26.72 4.25 4.92 10.17 7.89 15.49 11.5 2.45 3.6 2.14 9.17-2 11.37-2.51 2.25-5.63.49-8.45.04-1.73-2.58-3.7-5.75-7.22-5.68-5.29.66-10.03-1.74-14.93-3.09-1.34 2.82-3.76 5.62-3.04 8.97 2.55 5.62 5.45 11.75 11.02 14.97 6.56 4.04 11.9 9.97 15.27 16.9 5.41-.13 10.19-3.9 15.47-5.13 5.28-48.47 9.68-97.08 14.24-145.61-20.14 8.03-41.24 14.16-63.04 14.91-22.03-1.2-43.77-6.15-64.02-14.89m74.09 73.78c-.13 2.06-.15 4.13-.03 6.2 4.43.4 2.68-5.03.03-6.2m-15.07 3.11c.72 1.64 1.51 3.26 2.27 4.9 1.94.26 3.77-.72 5.65-1.07 1.45-4.71-5.29-4.38-7.92-3.83m-7.68 1.41c-.58.2-1.73.6-2.3.8.92 2.82 2.26 8.97 6.32 6.24 5.72-1.01.73-10.91-4.02-7.04m-7.05 2.93c-2.52 1.49-4.97 3.08-7.35 4.77 2.11 2.42 5.12 4.45 8.06 5.94 1.69-.98 3.3-2.1 4.9-3.22-.13-2.95-2.71-5.19-4.1-7.68-.38.05-1.13.14-1.51.19m33.89.1c-1.11.47-2.18 1-3.11 1.77.1 2.06 1.48 3.8 2.21 5.69 1.76.21 3.22-1.18 4.67-1.98-1.14-1.72-2.07-5.01-3.77-5.48m-15.83 3.95c-7.46 2.19-13.8 7.5-18.33 13.65-6.76 11.42-3.02 25.09.14 36.98 2.08.17 4.65-2.2 3.27-4.29-3.73-9.71-2.86-20.39-1.21-30.44.61-1.6 2.79-1.63 3.52-.11-3.16 9.96-2.04 20.78.44 30.77 1.72.02 4.93.98 3.76-1.92-3.66-14.32-3.61-31.5 7.48-42.53.82-.08 2.73-3.03.93-2.11m5.01 1.03c-3.74 2.93-7.01 6.48-9.27 10.69-5.45 10.14-3.78 22.18-.93 32.82 5.66.2 11.36-.08 16.99.84-.54-2.15-2.46-3.53-3.59-5.36-3.18-1.63-7.79.1-10.48-2.55.02-5.41 5.91.48 8.92-.81-.4-1.93-.87-3.85-1.27-5.78-3.56-2.02-6.04-5.27-8.43-8.52-1.36-1.81 2.6-4.39 2.99-.98 2.1 2.18 3.33 5.49 6.6 6.19.84-1.21 1.55-2.53 2.12-3.88-2.75-3.9-7.16-7.62-6-13.04-2.01-4.4 2.6-6.44 3.05-10.1l-.7.48m4.8-.01c-5.04 4.03-4.75 10.89-2.96 16.5.36.04 1.09.11 1.46.15.14-3.55.03-7.89 3.1-10.27 2.8-1.58-.09-5.95-1.6-6.38m-37.94 2.74c-1.42 2.5-3.94 4.75-4.15 7.72 2.91 1.76 6.36 3.34 9.61 3.92 1.03-2.15 3.28-4.03 3.2-6.52-2.96-1.52-5.19-4.96-8.66-5.12m46.99 1.03c-3.59 3.08 3.42 4.76 5.83 4.92-1.65-1.99-2.45-6.16-5.83-4.92m-5.03 3.93c-2.58 3.39-4.76 8.24-1.07 11.73 4.29-1.68 8.98-2.43 13.55-1.21 1.48.16 3.36.91 4.22-.8 1.05-3.26-3.16-3.98-5.14-5.44-4.38.12-7.68-3.29-11.56-4.28m-48 6c-1.82 2.55-2.99 5.68-3.2 8.81 4.28.67 8.58 1.57 12.95 1.09l.76-5.74c-3.47-1.41-6.69-4.21-10.51-4.16m67.06 4.18c-1.45 1.47.75 4.04 2.14 2.14 1.49-1.12-.96-3.26-2.14-2.14m-16.04 2.86c-.31.41-.92 1.25-1.23 1.67 3.67 1.4 8.66 1.83 11.26-1.68-2.51 0-7.52 0-10.03.01m20.74.87c.53 2.62 3.68 4.29 6.07 5.12-1-2.61-2.71-5.95-6.07-5.12m-3.07 3.12c-.22 3.29 2.43 6.67 5.93 5.75 3.68-2.81-4.91-3.91-5.93-5.75m-72.66.99c-1.37 2.8-1.54 5.91-2.03 8.96 5.16-.68 10.58-.61 15.58-2.16-.21-1.44-.64-4.31-.86-5.74-4.21-.56-8.41-1.49-12.69-1.06m11.1 10.31c-4.36.99-8.78 1.83-13.27 1.74.01 2.5.02 7.49.03 9.99 5.72-2.15 11.14-5.09 16.85-7.33-.57-2.15-.36-6.15-3.61-4.4m2.67 7.73c-5.24 2.46-10.38 5.13-15.83 7.1-.26 3.92-.3 7.85-.11 11.81.69-.05 2.07-.14 2.75-.19 3.92-6.02 9.43-11.3 16.07-14.15-.62-1.75-.03-5.66-2.88-4.57m20.08 2.88c.49 2.58-2.52 9.36 1.95 7.88 11.15-2.5 22.52 3.83 27.19 14.01 2.39-.04 6.89-1 6.8-3.86-5.99-13.55-21.59-20.64-35.94-18.03m-3.77 1.36c-3.91 2.54-11.37 2.64-8.44 9.76-1.44-.29-2.49-1.31-3.71-2.02-2.69 3.54-6.22 7.19-7.06 11.67 2.21.84 4.42 1.75 6.75 2.21 2.78-5.65 7.11-10.73 12.95-13.31-.18-1.95 2.05-9.43-.49-8.31m-12.14 2.7c-5.91 3.52-11.6 7.7-15.09 13.76 1.8.75 3.69 1.5 5.68 1.07.85-6.21 7.08-9.69 9.41-14.83m20.2 6.45c-1.38.22-2.76.41-4.12.69-1.04 3.92-1.36 8.12-3.19 11.8-.89 2.2-3.32 5.66.63 5.7 2.44-4.31 7.31-8.87 12.69-6.11 2.9.92 4.06 5.36 7.58 4.32 2.62-1.16 5.29-2.19 7.99-3.15-2.22-8.87-12.71-14.72-21.58-13.25m-9.08 2.74c-3.41 3.21-7.4 6.73-8.19 11.54 1.77.79 3.69 1.61 5.68 1.05 2.07-4.06 3.34-8.45 4.25-12.9-.43.08-1.31.23-1.74.31m9.02 11.93c-1.12 1.41-3.67 2.46-3.14 4.6 2.99 3.28 8.3-.02 11.87-1.01-1.99-2.73-4.65-5.79-8.73-3.59zm110.63-153.13c14.02-.1 28.05-.13 42.07-.01 0 .73.01 2.19.01 2.92-13.33.05-26.65.09-39.96-.02-1.55.18-2.14-1.67-2.12-2.89zm49.1-.03c9.32-.01 18.65-.19 27.97.03 0 .72.01 2.18.01 2.91-9.33.01-18.66.18-27.97-.03 0-.72-.01-2.18-.01-2.91zm-352.1 2.03c9.35-.05 18.72-.22 28.07 0 0 .72.01 2.18.01 2.9-8.66.06-17.31.13-25.96 0-1.53.13-2.15-1.67-2.12-2.9z" opacity=".94"/>
		<path d="M244.92 332.05c14.04-.08 28.09-.13 42.13 0 .42 2.89-3.6 4.64-6.04 2.95-10.01.02-20.02.02-30.02 0-2.68 1.74-6.33-.08-6.07-2.95zm104.09 5.93c15.3 5.9 31.62 9.27 48 10.18 20.37 2.28 40.52-4.06 59.97-9.23.07 18.43-3.6 36.67-4.07 55.1-6.04-.69-10.95-5.33-16.63-7.32-11.39-4.49-21.85-11.37-33.2-15.67-14.08 7.18-27.99 14.73-42 22.09-2.22 1.13-4.26 3.23-6.97 2.92-.85-19.43-3.5-38.71-5.1-58.07m3.2 4.94c2.01 16.28 3.23 32.72 4.89 49.07 28.38-15.76 58.11-29.92 86-46.05-10.01 1.74-19.81 5.14-30.09 5.04-18.11.94-36.31-1.21-53.71-6.34-2.31-.81-4.59-1.87-7.09-1.72m101.07 1.42c-14.86 8.23-30.23 15.53-44.96 24.01-3.3 1.7 2.03 2.91 3.62 2.62 14.19-7 28.04-14.67 42.03-22.08l.06-4.9-.75.35m-.99 9c-12.39 6.62-25.06 12.7-37.21 19.75.96 2.17 4.96 2.48 6.94.94 10.05-5.85 20.65-10.66 30.8-16.33l.2-4.71-.73.35m-1.3 8.86c-9.52 4.17-18.13 10.16-27.83 14 .01 1.66 2.54 2.01 3.79 2.75 8.53-3.97 16.5-9 25-13.04-.32-1.04 1.09-4.86-.96-3.71m-.7 8.18c-6.48 3.19-12.97 6.37-19.37 9.72.58 1.4 2.36 2.54 3.85 2.49 5.88-2.89 11.98-5.59 17.1-9.76.2-1.5.65-3.93-1.58-2.45m-.29 7.83c-4.14 1.67-8.09 3.76-12.02 5.84 3.28 4.58 9.03-1.14 12.87-2.26-.21-1.02 1.19-4.77-.85-3.58m-1.72 8.14c-4.32.66-1.18 3.9 1.68 3.73-.21-1.51 1.05-5.39-1.68-3.73zm65.73-47.32c45.66-.04 91.32-.07 136.97.02 0 .73.01 2.19.01 2.92-45.66.04-91.32.07-136.97-.02 0-.73-.01-2.19-.01-2.92zm-364 1c44.99-.04 89.97-.07 134.96.02 3.31-.17 2.99 8.21-2.96 2.96-44-.06-88 .06-131.99-.06 0-.73-.01-2.19-.01-2.92z" opacity=".94"/>
		<path d="M367.96 354.03c4.35-.04 8.74-.2 13.1.03-.12 1.7-.72 3.3-1.06 4.96 2.05.14 4-.53 5.95-1.03.02 4.67.21 9.38-.02 14.07-2.06-.48-4.02-1.3-6.02-1.96.25 1.98.97 3.86 1.16 5.85-4.38.02-8.73.22-13.09 0-.13-1.74.28-3.42.85-5.04-2-.01-3.88.62-5.78 1.1-.06-4.68-.21-9.34.02-14 1.89.46 3.77 1.07 5.76 1.08-.58-1.63-.97-3.33-.87-5.06m3.12 2.92c.75 2.27 1.85 4.47 2.02 6.9-2.35-.66-4.7-1.33-7.07-1.87v6.06c2.37-.57 4.72-1.24 7.07-1.89-.17 2.41-1.26 4.61-2.01 6.87 1.5-.01 4.49-.04 5.98-.05-.25-2.31-1.16-4.49-1.15-6.83 2.34.66 4.68 1.33 7.05 1.89v-6.1c-2.49.04-4.73 1.24-7.05 1.98-.02-2.36.91-4.56 1.13-6.88l-5.97-.08zm-143.85 4.19c4.56-.16 9.16-.32 13.74-.07.13 5.29.12 10.59-.02 15.89-1.06 2.78-3.18 5.05-4.31 7.83-2.93.11-5.8.37-8.72.16.35-3.39 3.73-5.47 4.2-8.82-1.52-.05-4.57-.16-6.09-.21.94-4.64-1.88-10.88 1.2-14.78zM79.32 362.4c13.8-2.81 32.97 5.53 32.7 21.56-4.26-.07-8.55.39-12.79-.12-1.57-7.91-9.9-11.22-17.23-10.84-6.55.82-11.82 5.9-14.01 12.01-3.69 10.02-2.73 22.82 5.71 30.29 8.92 8.52 27.09 1.58 26.32-11.27-4.67-.15-9.34.12-14-.1v-9.89c8.98-.06 17.97-.16 26.95.01-.69 12.19 1.62 24.93-1.17 36.84-3.91.18-7.83.2-11.73.07-.04-1.75-.1-5.26-.14-7.01-8.39 7.68-21.89 7.97-31.63 2.73-19.95-11.38-21.33-44.05-4.06-58.44 4.46-3.14 9.65-5.2 15.08-5.84zm454.02.07c14.28-3.65 33.23 6.58 32.68 22.49-4.27-.08-8.55.4-12.78-.13-2.22-11.67-19.32-15.3-26.08-5.67-6.25 9.82-6.52 23.89 0 33.68 4.99 7.12 16.07 7.1 22.14 1.47 2.37-2.1 2.68-5.44 3.93-8.18 4.23-.15 8.52-.31 12.77-.07-.42 13.08-12.94 24.24-25.99 23.94-7.96 1.05-15.49-2.87-21.86-7.18-11.36-13.04-12.22-33.49-3.49-48.13 3.93-6.75 11-11.14 18.68-12.22zm-332.29 1.56c4.29-.04 8.61-.21 12.92.03.01 21.3.14 42.61-.04 63.91-4.29 0-8.58.23-12.86-.05 1.6-9.66-.42-4.49-1.85-2.68-7.56 7.44-20.32 4.95-26.64-2.85-5.64-5.8-5.5-14.84-5.56-22.35 1.19-8.1 5.24-17.91 13.97-20.05 7.45-3.06 14.77 1.04 19.96 6.14.17-7.38-.11-14.74.1-22.1m-13.75 26.24c-8.08 3.45-8.63 14.47-6.21 21.67 1.53 6.72 11.84 10.4 16.2 4.34 5.89-4.41 3.54-12.51 3.11-18.61-.61-6.03-7.67-9-13.1-7.4zm382.77-26.25c3.95-.12 7.92-.11 11.9.03.15 7.35-.12 14.71.1 22.07 6.15-7.32 18.03-8.43 25.75-2.94 3.86 3.01 5.29 8.09 5.14 12.81.06 10.66.12 21.32-.01 31.98-4.33.01-8.62.21-12.92-.03-.22-11.57.23-23.15-.19-34.71-4.32-5.47-15.13-4.51-16.75 2.83-2.46 10.38-.39 21.33-1.13 31.91-3.99.11-7.96.11-11.93-.01-.01-21.32-.14-42.63.04-63.94z" opacity=".94"/>
		<path d="M136.32 379.4c8.16-1.45 17.34 1.12 22.77 7.53 8.16 11.51 7.83 30.11-4.41 38.72-7.33 4.23-16.66 5.05-24.62 2.27-10.19-3.78-15.53-15.52-14.06-25.92-.21-11.25 8.91-21.9 20.32-22.6m.01 10.96c-6.75 1.57-8.4 9.66-7.31 15.65-1.58 8.52 8.09 16.71 16.02 12.01 8.02-2.53 7.82-13.5 5.97-20.03-.75-6.91-8.75-9.65-14.68-7.63zm126.01-10.91c10.37-2.91 26.1 3.04 25.68 15.53-3.96.15-7.92.12-11.87-.08-1.01-1.43-1.67-3.05-2.51-4.57-4.01-2.27-9.89-2.19-13.55.83-.16 1.22-.16 2.45 0 3.68 5.81 4.04 13.48 3.3 19.78 6.33 6.87 1.32 11.99 9.24 9.14 15.83-1.1 7.64-8.73 11.62-15.66 12.47-8.61 1.95-17.47-1.36-24.32-6.5-1.75-3.06-3.68-6.29-3.02-9.95 4.23.02 8.5-.32 12.73.11.62 8.32 13.45 9.28 18.11 3.66 1.05-2.84-1.95-4.56-4.15-5.44-6.8-2.21-14.41-2.48-20.53-6.53-4.79-3.84-6.36-10.7-3.48-16.13 2.54-5.27 8.02-8.37 13.65-9.24zm372 .02c6.28-1.14 13.21-.03 18.49 3.7 7.1 5.97 8.9 15.98 8.17 24.8-10.95.18-21.89-.12-32.83.06.69 5.76 4.6 11.64 10.83 11.96 3.79-.57 7.69-2.04 9.23-5.86 3.91-.21 7.84-.24 11.78-.1.79 5.67-4.8 9.1-8.32 12.65-10.73 4.96-26.69 4.01-32.69-7.68-4.05-8.92-4.64-20.17.03-28.95 2.54-6.28 8.96-9.52 15.31-10.58m2.95 9.86c-4.88.83-8.01 5.98-8.33 10.6 6.35.25 12.69.04 19.06.02 1.18-5.81-5.08-12-10.73-10.62zm43.05-9.86c10.77-3.27 25.05 3.47 25.73 15.49-3.98.19-7.93.15-11.86-.1-2.22-3.03-4.2-7.98-9.21-5.86-3.93-2.03-5.66 1.23-7.78 3.26-.87 1.63 1.12 2.51 2.08 3.43 7.15 3.99 16.46 2.74 23.1 7.84 7.35 4.6 6.17 16.59-.36 21.52-7.18 5.13-17.07 6.19-25.35 3.34-7-2.02-13.62-7.52-13.7-15.37 4.2.08 8.51-.42 12.73.17 1.74 8.39 14.02 9.43 19.14 3.6 1.17-3.34-3.23-5.67-5.87-5.74-7.62-2.49-17.11-2.6-22.23-9.78-3.43-5.44-.92-12.24 2.29-17.21 3.56-1.95 7.16-4.13 11.29-4.59z" opacity=".94"/>
		<path d="M726.34 379.44c10.73-2.77 25.09 3.35 25.73 15.52-4.3-.04-8.57.32-12.82-.08-.3-3.75-4.13-7.6-8.25-5.88-3.54-1.66-6.67 1.29-7.97 4.01 1.18 3.38 5.94 4.23 8.96 5 6.93 2.02 16.62 2.31 20.03 9.95 3.78 7.57-1.19 16.44-8.32 19.69-6.99 2.41-14.76 3.38-21.78.47-6.92-1.73-12.57-7.89-12.99-15.08 4.22.07 8.55-.44 12.79.15 1.23 4.4 5.26 8.14 10.28 6.81 3.72 1.15 9.21-1.53 8.81-5.76-6.38-5.94-16.8-4.17-24.05-9-5.43-3.09-7.6-10.59-4.55-16.08 1.87-6.4 8.35-8.44 14.13-9.72zM514 455.03c32-.05 63.99-.06 95.99 0 0 .49 0 1.46.01 1.94-32 .05-64 .05-95.99 0 0-.49 0-1.46-.01-1.94zm-329.99 1c34.32-.04 68.65-.09 102.97.02 0 .73.01 2.19.01 2.92-34.33.03-68.65.09-102.97-.02 0-.73-.01-2.19-.01-2.92zm330.2 7.1c11.25-.21 22.51-.25 33.77-.07 0 .73.01 2.18.01 2.91-11.7.06-23.39.08-35.07-.02-.07-1.19.36-2.13 1.29-2.82zm40.81-.13c2.14.08 8.53-1.41 8.07 2.96-2.37-1.03-9.84 2.38-8.07-2.96zm-318.01 2.02c2.32.97 9.73-2.3 7.98 2.96-2.34-1.02-9.72 2.31-7.98-2.96zm14.01.01c11.65-.08 23.31-.08 34.96 0v2.94c-11.65.07-23.31.07-34.96 0v-2.94zm-20.67 34.37l.65-.37c10.21 5.91 21.11 10.6 31.05 16.96 8.1-2.79 15.71-7.51 23.25-11.68.94-.39 1.97-1.47 3-.65 19.77 10.07 40.02 19.1 59.7 29.35 18.87 8.19 36.84 18.79 55.78 26.57 35.33-17.35 70.78-34.45 106.21-51.59 3.81-2.29 8.35-2.6 12.68-2.63 7.36 2.96 13.66 8.37 21.25 10.63 9.6-5.15 18.82-11.11 28.98-15.17 1.5-.55 3.25-1.32 4.82-.5 19.45 10.6 38.78 21.43 58.37 31.79-2 3.68-8.05 2.19-9.48 6.54-5.04-.4-9.34 3.37-13.95 4.91-3.6 1.62-7.65 2.66-10.44 5.6-4.36.52-10.05 2.21-12.54 6.37-4.49-.92-8.76 2.4-12.52 4.55-8.06 2.24-15.34 6.9-23.22 9.81-10.96-5.97-21.94-12.06-33-17.86-5.93 1.05-9.76 7.21-15.94 8.02-8.63 4.74-17.52 9.49-26.75 13.56-15.59-7.85-30.73-16.58-46.25-24.55-8.35 3.92-16.42 8.48-24.95 12.02 4.68 3.65 11.45 5.84 17.03 8.84 1.62.26.69 2.37-.21 2.95-6.87-3.46-13.85-6.68-20.88-9.78-7.09 3.1-13.69 7.32-20.97 10-1.34-4.77 5.19-4.96 7.98-7.08 2.75-1.94 7.26-1.83 9.08-4.91-7.06-3.72-14.28-7.12-21.38-10.77-2.02-1.13-3.9 1.22-5.71 1.64-11.42 5.84-22.49 12.34-33.97 18.06-3.59 1.64-6.81 5.18-10.96 4.92-8.68-3.68-16.44-9.14-25.07-12.93-6.19-2.59-11.45-7.16-18-8.9-11.05 4.55-20.76 12.1-31.77 16.47-27.45-12.08-54.72-24.64-82.13-36.82 19.66-11.37 40.36-22.05 60.26-33.37m-1 3.99c-17.4 9.63-34.77 19.43-52.39 28.68 1.2 2.34 5.08 2.25 7.19 3.74 11.09 4.84 22.11 9.86 33.15 14.83 1.84 1 3.78-.08 5.4-.98 9.28-4.19 17.83-9.77 27.15-13.86-1.77-3.03-6.64-4.05-9.6-6.09-4.22-8.35-5.6-17.78-8.49-26.63-.61.08-1.81.23-2.41.31m344.89-.21c-1.45 1.12-2.75 2.57-2.17 4.56 4.17.49 7.07 3.9 10.92 5.29 13.68 7.26 27.38 14.52 41.01 21.89 1.68-.66 3.3-1.49 4.97-2.2-2.46-3.74-7.46-4.41-10.98-6.76-9.46-5.69-19.39-10.52-28.99-15.96-4.92-2-9.31-6.81-14.76-6.82M236 505.92c1.8 7.04 3.5 14.27 6.1 20.99 5.82-2.26 10.83-6.37 16.8-8.19-.01-.37-.03-1.13-.05-1.5-8-3.02-14.71-8.62-22.85-11.3m50.31 1.42c-13.45 6.86-26.61 14.29-40.19 20.88-.67 1.96 1.64 2.06 2.83 2.83 12.68 5.65 24.44 13.09 37.06 18.86 14.19-6.92 27.45-15.67 41.87-22.13-.01-.37-.04-1.13-.05-1.51-13.26-6.51-26.51-13.02-39.93-19.21-.4.07-1.2.21-1.59.28m281 .05c-6.56 2.95-12.73 6.65-19.12 9.92-.02.36-.05 1.1-.07 1.47 5.16 1.73 9.63 5.46 14.67 7.15 2.39-6.23 4.11-12.7 6.05-19.07-.38.13-1.15.4-1.53.53m-50 1.99c-1.49 1.48-5.84.66-5.12 3.35 12.95 5.77 25 13.3 37.87 19.23 2.44-.09 6.84-1.01 6.96-3.86-10.43-5.21-20.75-10.61-31-16.14-2.81-.9-5.6-4.02-8.71-2.58m53.89.75c-1.09 3.24-4.39 8.37.83 9.83 13.25 6.52 26.17 13.67 39.18 20.65 2.77-1.61 7.13-1.59 8.86-4.5-16.22-8.8-32.63-17.24-48.87-25.98m-64.21 3.99c-2.12 1.41-5.8 1.51-7.04 3.81 12.78 6.1 24.99 13.25 37.73 19.42 3.16 1.99 7.2-1.62 9.11-3.28-13.1-6.81-26.13-14.7-39.8-19.95m-12 5.96c-1.53.74-4.59 2.23-6.12 2.98 11.99 7.45 25.14 13.49 37.47 20.55 3.06 1.1 7.93-1.47 9.52-3.5-12.8-6.98-25.73-13.82-38.94-20.05-.48 0-1.45.01-1.93.02m73.09.99c-1.15 2.04-2.16 4.38-2.01 6.76 11.39 5.85 22.61 12.18 34.18 17.76 1.92-1.5 7.29-1.07 6.62-4.37-13.21-6.17-25.96-13.26-38.79-20.15m-83.18 4.07c-2.1 1.4-5.72 1.51-6.95 3.79 13.04 6.67 26.31 12.95 39.11 20.05 2.33-.14 6.89-.99 6.82-3.76-13.45-5.81-25.69-13.99-38.98-20.08m-154.54 4.25c-13.23 7.55-26.82 14.54-40.17 21.91-.81 1.92 1.69 1.96 2.79 2.74 11.96 5.43 23.07 12.46 35.02 17.89 14.85-7.22 29.08-15.63 43.78-23.16l.12-.67c-11.33-6.29-23.21-11.52-34.88-17.12-2.07-.75-4.43-2.99-6.66-1.59m144.34.95c-2.21.86-4.38 1.78-6.52 2.77-.1 1.33 1.97 1.19 2.77 1.95 12.28 6.69 24.67 13.26 37 19.85 1.72-1.47 6.43-1.49 6.79-3.7-13.13-7.36-27.04-13.27-40.04-20.87m87.59.02c-2.5 1.18-4.97 2.41-7.39 3.73 9.29 6.26 20.09 10.62 30.09 15.9 3.37 2.71 6.92-.81 10.15-1.82 1.95-.52-.26-1.93-1.09-2.21-10.61-5.01-20.86-12.09-31.76-15.6m-98.4 4.74c-1.51.75-4.54 2.25-6.05 3.01 5.51 4.55 12.64 6.45 18.51 10.48 7.4 3.44 14.14 8.13 21.66 11.33 1.42-1.25 8.55-2.28 4.72-4.63-13.09-6.46-25.71-13.83-38.84-20.19m87.02 1.05c-1.88 1.68-7.38 1.28-6.74 4.57 10.91 4.78 20.84 11.47 31.82 16.15 1.89-1.74 7.48-1.27 6.88-4.65-11.03-4.63-21.14-11.07-31.96-16.07m-297.01.98c-10.58 4.71-20.35 10.96-30.83 15.87l.06.73c7.83 2.38 14.92 6.71 22.54 9.69 2.76.98 5.66 3.88 8.66 1.95 8.45-4.64 16.96-9.18 25.51-13.62l.04-1.53c-8.98-3.73-16.92-9.51-25.98-13.09m200.01 3c-2.1 1.41-5.7 1.52-6.95 3.78 13.44 7.2 26.89 14.4 40.27 21.72 2.25-.86 4.48-1.79 6.68-2.81.66-2.78-3.41-2.54-4.81-4-11.77-6.16-23.23-12.94-35.19-18.69m85.38 2.23c-2.5 1.18-4.97 2.41-7.39 3.72 9.55 6.14 20.21 11.09 30.32 16.52 3.03-1.31 7.78-2.19 9.52-4.43-10.97-4.82-21.3-12.28-32.45-15.81m-98.02 3.92c-.91.66-4.56 1.59-2.34 2.82 12.51 6.86 25.01 13.81 37.76 20.26 2.47 1.65 4.93-.97 7.29-1.64-10.51-7.06-22.5-11.71-33.27-18.41-3.03-1.06-6.03-4.28-9.44-3.03m86.01 2.04c-1.14.42-3.01.71-2.02 2.36 8.6 5.23 17.85 9.32 26.41 14.68 1.79 1.28 5.5.61 6.26-1.27-7.44-4.82-15.72-8.09-23.22-12.78-2.44-.83-4.86-3.28-7.43-2.99zM0 561c47.66.04 95.33-.08 142.99.05-.01.72-.01 2.17-.01 2.89-47.66.15-95.32.01-142.98.06v-3zm656.03 1.07c47.98-.18 95.98-.01 143.97-.07v3c-48-.04-95.99.07-143.99-.05.01-.72.01-2.16.02-2.88zm-581.02 7.96c2.3 1.35 10.73-2.69 8.98 2.94-2.3-1.38-10.73 2.7-8.98-2.94zm20 0c16.01-.02 32.03-.14 48.04.03.4 2.91-3.57 4.57-6.04 2.94-14-.03-28 .09-41.99-.05 0-.73-.01-2.19-.01-2.92zm561.01 1c16.98-.06 33.97-.07 50.96 0v2.94c-16.99.05-33.98.06-50.96 0v-2.94zm63-.02c2.74 1.34 11.84-3.12 9.96 2.98-2.8-1.39-11.84 3.12-9.96-2.98zM346.07 596c4.96-.78 11.59 2.12 10.91 7.95-1.01 4.97-6.5 6.37-10.93 6.07-.05-4.7-.22-9.35.02-14.02m1.98 3c.35 3.65-2.9 11.59 4.78 7.91 4.04-3.07.85-10.69-4.78-7.91zm13.02-2.98c1.08 1.88 9.16-2.55 7.94 1.95.71 3.69-7.56-1.51-6.02 3-.81 3.69 7.54-1.51 6 2.94-3.61-.86-6.95-.75-5.97 3 3.6-.95 6.97-.68 5.97 3.07-2.66.1-5.31.09-7.96-.03-.04-4.67-.2-9.29.04-13.93zm17.99 0c.48-.01 1.43-.01 1.91-.02.01 4.64.19 9.33-.03 13.98-.48.01-1.43.01-1.91.02-.04-4.69-.19-9.33.03-13.98zm15.02-.14c4.38 2.42.97 9.06 1.88 13.18-3.19-2.1-6.03-4.67-8.85-7.21-2.26.96 2.51 9.41-2.09 8.15-.05-4.39-.15-8.73.04-13.09 3 2.33 5.8 4.91 8.85 7.22 0-2.76.06-5.51.17-8.25zm12.1.33c3.5.35 1.18 6 1.9 8.75.01 2.44 3.01 2.21 4.72 1.93 3.54-2.6-1.31-9.08 3.13-11.07l-.08 10.99c-1.79 1.66-4.46 4.29-6.88 2.26-4.38-2.22-5.64-9.35-2.79-12.86zm15.05.09l.63-.47c-1.73 11.85 4.17-.05 8.18.12.32 3.35-4.24 4.17-5.07 7.01 1.05 2.81 5.16 3.8 5.08 7.08-3.38-.02-4.74-4.02-7.29-5.72-2.85-2.78 1.63 7.83-2.74 5.68.99-4.23-2.01-10.37 1.21-13.7zm13.84-.31c3.93-.97 8.17.18 10.79 3.23.8 2.55-1.63 4.37-2.57 6.49 1.24 1.12 2.01 2.59 1.75 4.32-2.88.37-2.51-3.44-4.19-4.93-2.59-.03-7.39-1.44-3.95 4.88-.47 0-1.41.01-1.87.02-.04-4.7-.2-9.34.04-14.01m1.96 2.99c-.68 3.76.6 6.11 5.76 3.9 3.03-3.55-2.53-5.68-5.76-3.9zm30.05-3.1c4.44 1.68.53 7.91 1.95 11.14.36 1.55-.75 2.46-1.95 3.16-.08-4.79-.23-9.53 0-14.3zm15.18.41l.66-.47c.03 4.41.24 8.89-.02 13.32-2.76-2.26-5.02-5.03-7.74-7.31-1.04 2.35 1.37 7.04-2.04 8.35-.5-4.43.65-9.06-.92-13.31 3.71.96 5.53 5.15 8.64 7.3 1.78-1.92-1.54-6.48 1.42-7.88zm5.97-.15c2.29.78 9.47-2.36 7.75 2.78-2.59.5-8.47-1.64-6.96 3 1.74.04 5.22.11 6.96.14 1.56 4.75-6.72-.17-6.99 2.96-1.35 5.21 9.37-1.29 7 4.97-2.43-1.4-6.94 1.69-8.86-1.22.8-3.91-2.14-9.57 1.1-12.63zm-176.18.84c2.64 1.43 4.09 4.64 6.78 5.86 2-2.04 3.84-4.25 6.06-6.04.05 4.37.28 8.79.06 13.18-4.47 1.16-1.15-5.55-2.05-8.11-1.76.99-2.79 3.37-4.69 3.84-1.38-1.29-2.63-2.7-4.08-3.89-2.28.95 2.49 9.44-2.11 8.18-.05-4.37-.14-8.69.03-13.02zm23.14.21l.71-.26c2.22 4.28 4.66 8.5 6.18 13.11-3.62.34-4.15-5.97-8.77-2.8-1.36 1.11-2.36 3-4.38 2.8 1.4-4.53 3.66-8.89 6.26-12.85m-.02 5c-1.87.63-1.37 3.66.8 2.94 2.02-.27.8-3.36-.8-2.94zm120.93-5.06l.7.03c1.36 4.41 5.01 8.19 5.24 12.89-3.76.48-2.13-7.35-7.92-3.01-1.88.38-1.58 3.91-4.19 2.97 1.37-4.55 3.79-8.78 6.17-12.88m-.86 5.1c-1.43 1.6.71 3.92 2.42 2.63.34-1.18-.94-3.66-2.42-2.63z" opacity=".94"/>
	</g>
</svg>

