
<svg xmlns="http://www.w3.org/2000/svg" width="54" height="54" viewBox="0 0 150 150">
	<g fill="#c59e78">
		<path d="M92 31.96c6.08 2.98 10.9 9.1 11.2 16.05 3.1-.8 6.25-1.3 8.83 1.2-1.64 2.3-6.12 2.5-6.07 5.7 4-1.6 6.08 1.7 8.2 4-3.94-.2-9.88.7-11.2 5.2 1.34 1.7 3.82 2.4 4.46 4.7 1.8 2.8-1.26 5.1-2.4 7.4 3.04 3.9 3.54 9.1 2.73 13.8-1.4 2.3-3.27 4.2-4.77 6.4.88 3.3 2.6 6.3 3.33 9.7 4.1-.4 11.1 1.9 9.8 7.2-4.2-2.9-9.3-.3-14-.9-5 .56-10.7-1.33-15.3 1.7-2.1 1.1-2.8-2.9-5-2.14-8.8 1.68-18.4-1.7-26.7 2.6 1.5-4.2 4.6-7.15 8.9-8.4.6-4.1-3.7-7.34-2.7-11.5C64.6 90 74.1 91 71.1 83c-4.2 1.2-9.67 2.3-11.07 7-1.1 2.23-3.8 7.97-2-2-.7-3.9-.05-7.7 1.98-11.05-6.7-.82-11.3 4.37-16 8.12 1.5-5.4 4.4-10.25 7.1-15.1-6.8-1.76-12.3 2.8-18.1 5.1.6-5.8 4.8-9.65 9.2-12.87-7.2-3.2-15.7-2.9-22.5-7 11.8-.4 23.5-.3 35.3-.2 5.3-.4 10.6 1.9 13.7 6.2 2.1 3.9 3.2 8.3 5.7 12-.1 2.4-2.1 6.1 4.6 2.7 2.6 0 10.5.9 9-4.1-2.5-.2-3.3 3-5.8 3.2.7-2.7 1.6-5.4 1.9-8.1-3.3 1.2-6.6 2.7-9.9 4 1-4.2 3.7-7.6 5.9-11.2-3.3.04-6.8-.26-10 .86.6-5.4 6.8-6.5 10.13-9.7-2.97-1.97-6.8-1.73-10.1-2.25 3.3-4.1 9.4-3.4 14.1-3.9.9-3.7-3.4-4.5-5.24-6.7 5.1-1.7 9.4 1.4 14.2 2-.13-2.7-.73-5.4-.95-8.1m4.2 7.2c-.5 2-1 3.9-1.42 5.9-3.1-.8-5.4-3.6-8.7-4.1 1.05 2.3 2.4 4.5 1.97 7.1-2.7-.5-5.4-1.6-8.27-.8 2 2 4.77 3.2 6.3 5.66-2.93 1.5-6.9 1.25-9.13 3.9 3.2.6 7.3.67 9.1 3.9-2.04 1.3-4.7 2.2-6.03 4.4 3.46.1 6.9-2 10.15.15-.9 1.25-2 2.33-2.9 3.6 2.3 1.24 6.8 1.1 3.6 6-2.2 6.2-10.9 3.7-15.7 4.3-8.6-1.9-9.5-11.5-13.3-17.8-6.14-5.5-14.7-2.6-22.06-3 4.78 2.7 11.4 2.7 15.4 5.7-5.56.4-12.9-.4-16.2 5.1 5.8-2 12.1-2.6 18.08-.8.08 3.6-6.12 3.7-6.04 7.7 4-1.9 8.7-2.9 13-.8-.6 3.06-3.93 5.3-3 8.8 2.7-2.13 6.1-2.8 9.37-3.6 1.2-.33 2.86-.77 3.3.8-.6 3.14-.73 6.34-.85 9.53-2.9 1.5-5.9 2.8-8.78 4.4.5 4.85 3.7 9.1 5.2 13.74l2.8.17c-2-4.4-4.8-8.4-6.1-13.03 5 .8 10.8 1.4 14.9-2.2l2.4-8c2.1 2.1 1.32 6.2 4.83 7.1 6.3 2.8 8.1 10.3 11.2 15.9l2.7.2c-1.6-5.9-5.9-11-6-17.2 2.4 0 4.6 4.2 6.3.4 4.3-3.6 3.85-11.6-.55-15.1-1.47-2.15-5-3.3-4.8-6.3 2.7-.8 3.5 2.47 5.84 2.9 1.32-1.16 2.8-2.63 2.04-4.6-2.5-1.4-6.36-4-3.87-7.2 4-5.1.3-10.9-.9-16.1-1.2-2-1.5-6.5-3.9-6.8M66 62.9c.63 2.2.54 5.13 2.98 6.2-.68-2.2-.6-5.15-3-6.2M83.9 94c-2.97 2.4-5.8 5.54-9.94 5.2-.24 2.4 1.34 4.4 2.3 6.5 3.73.25 8.26 1.4 9.9 5.15 2.34-1.97 4.8-3.83 7.56-5.2-.44-5.65-4.74-9.55-9.8-11.63z"/>
		<path d="M91.2 50.14c2.6-.2 5.2-.22 7.8-.1 2.6 4.37-1.33 5.78-4 6.94-2.77-.48-6.7-4.48-3.8-6.84z"/>
	</g>
	<path fill="#55261A" d="M121.3 40.3c2.35-2.6.45 5.4.15 6.98-.57 2.54 4.88.64 3.26 3.4-3.2 2.2-6.5 4.36-10.7 3.33 2.7-4.4 4.8-9.2 7.3-13.7z"/>
</svg>

