
<svg xmlns="http://www.w3.org/2000/svg" width="54" height="54" viewBox="0 0 852 852">
	<g fill="#F7F7F7">
		<path d="M0 0h852v851c-282.65.11-565.31-.03-847.96.07-1.36-.09-2.71-.29-4.04-.59V0m517.97 175.66c2.2 7.85 4.6 15.66 6.75 23.53 2.72 10.11 3.43 20.74 2.12 31.13-11.08-5.48-22.66-10.15-34.9-12.29-15.11-3.04-30.59-2.1-45.9-2.22 12.86 11.16 28.26 20.94 35.09 37.27-22.1-1.05-45.01 1.21-65.12 11.04-8.51 4.33-17.01 8.69-25.42 13.2 12.1 1.15 24.27 1.56 36.32 3.21 11.5 1.71 22.87 5.14 32.87 11.17-18.8 6.9-37.49 15.9-51.62 30.42-6.59 7.15-11.96 15.32-17.92 22.98 12.86-2.62 25.56-6.51 38.75-7.09 10.22-.53 20.59.63 30.29 3.98-10.41 7.6-19.6 17.08-25.89 28.39-7.15 12.27-9.23 26.53-13.14 39.99 10.53-7.56 19.99-16.95 32.08-22.05 8.67-3.81 18.01-5.87 27.4-6.92-7.05 14.63-9.59 30.78-13.15 46.47 3.7-2.7 7.37-5.45 11.05-8.19 7.26-5.53 15.29-12.02 25.06-10.82-1.14 7.12-3.52 15.58-10.77 18.69-12.41 4.67-25.85 5.55-38.98 5.83-13.55.45-27.99.08-39.78-7.49 3.83-2.83 7.73-5.56 11.57-8.38-8.31-10.48-14.27-22.54-19.27-34.89-7.76-18.4-15.17-38.02-30.33-51.75-12.62-11.71-30.15-16.74-47.1-16.51-74.88-.08-149.76-.11-224.64.01 46.89 13.04 93.78 26.08 140.42 39.99-20.55 7.5-38.36 22.77-47.7 42.69-5.03 9.81-6.19 20.91-8.65 31.51 8.75-5.65 17.07-12.03 26.47-16.61 24.73-12.51 53.04-19.63 80.79-15.64-8.38 7.26-15.37 16.01-20.85 25.63-11.74 20.29-17.76 43.13-25.6 65.07 7.67-7.58 15.27-15.23 22.91-22.83 7.06-7.1 14.98-13.4 23.82-18.14 13.84-7.52 29.94-10.95 45.62-9.09-6.21 10.07-10.22 21.4-12.13 33.05-3.68 20.49.13 41.19 1.72 61.68 1.68-3.5 3.31-7.02 4.95-10.54 4.91-9.81 8.34-20.79 16.51-28.52 13.15-12.85 31.68-18.28 49.52-20.4-.15 10.18-.16 20.36-.2 30.54-15.11 7.67-30.27 15.22-45.34 22.95-8.42 4.36-11.43 15.32-8.08 23.87 6.22 16.9 13.13 33.54 20.25 50.08-7.85-.57-16.58 1.36-21.23 8.28-7.86 1.14-14.73 5.98-18.91 12.66-6.11 9.61-11.37 19.73-17.05 29.59 8.34-4.51 16.63-9.12 24.98-13.63 3.62-1.99 7.44-3.62 11.4-4.81 2.57 1.69 5.33 3.16 8.4 3.69 10.1 1.87 20.41 1.18 30.62 1.1H426c10.52.04 21.15.82 31.57-1.01 3.07-.45 5.57-2.36 8.34-3.58 7.72 1.11 13.46 7.05 19.87 10.99-1.37 2.43-2.75 4.85-4.13 7.29 12.16-6.08 23.44-14.09 36.37-18.49 2.57 1.64 5.31 3.14 8.36 3.67 11.43 2.15 23.11 1 34.67 1.13 16.31.07 32.63-.16 48.94.2 6.78-.06 13.66-.01 20.29-1.61 3.28-.61 5.88-4.4 9.4-2.67 8.06 3.04 14.49 9.11 21.77 13.58-1.01-6.57-.76-13.39-2.65-19.79-4.11-8.77-12.06-15.77-21.27-18.78-2.55-.85-3.89-3.42-6.12-4.75-3.73-2.17-8.16-2.62-12.39-2.59-7.97.12-15.79 1.84-23.69 2.68 3.19-1.39 6.42-2.68 9.66-3.95-7.38-18.37-14.71-36.76-22.12-55.11 7.21-4.92 13.75-10.94 18.63-18.21 19.41-28.45 15.75-69.91-7.42-95.15 12.95-8.34 19.6-25.53 14.88-40.3-2.05-7.33-7.12-13.65-13.78-17.33-3.56-2.3-8.85-3.87-9.37-8.79-1.43-5.54 1.94-10.71 5.6-14.53 10.09-10.43 25.21-15 39.48-13.79 8.06.73 16.1 1.72 24.16 2.5-5.11-4.95-10.23-9.88-15.35-14.82-10.68-10.2-26.07-15.66-40.77-12.97 2.19-6.65 7.14-11.93 13.05-15.51 8.11-5 16.29-9.88 24.2-15.19-7.07-4-13.72-9.53-22.06-10.49-9.19-1.32-18.25 2.07-26 6.75-4.27-24.13-12.87-48.16-29.19-66.84-11.36-13.72-26.61-23.21-40.96-33.42m127.04 130.57c9.95.85 20.07.11 29.74-2.43 13.71-3.49 26.4-11.37 34.85-22.82-7.89-.89-15.83-2.66-22.82-6.55 2.94-17.22 3.76-34.92 1.47-52.27-9.07 30.3-22.6 59.85-43.24 84.07z"/>
		<path d="M542.87 214.39c9.59 9.91 17.1 21.79 21.98 34.69 6.98 17.82 9.12 36.98 12.7 55.65 4.25-3.67 8.29-7.59 12.68-11.11-2.32 3.78-4.61 7.65-5.85 11.94-3.11 9.63-2.16 19.86-2.32 29.82 1.24-.67 2.5-1.32 3.77-1.98-6.89 6.06-13.5 13.36-15.36 22.63-1.36 8.51.64 18.26 7.46 24.04 4.23 3.96 10.39 5.36 14.05 9.97 5.94 8.58 2.61 21.51-5.98 27.03-2.98 1.98-7.01 1.97-9.97-.03-6.61-4.14-9.67-11.67-13.35-18.19-4.56 2.43-9.08 4.9-13.61 7.37 3.92 7.32 7.78 14.96 14.12 20.53 4.2 4.06 9.92 5.9 14.43 9.55 10.49 8.23 16.9 20.77 19.54 33.67 3.21 15.86.86 33.29-8.42 46.79-5.39 7.98-13.22 14.06-21.92 18.06-4.53-4.34-8.41-9.41-13.39-13.24-5.43-3.42-13.11 2.4-11.16 8.53 9.12 21.81 17.97 43.76 26.98 65.63 2.39 6.03 5.14 11.93 7.06 18.14 1.09 3.63 5.16 5.18 8.67 4.87 12.42.69 24.48-3.36 36.88-3.1-.2 1.77-.4 3.53-.58 5.3-5.42.3-10.85.39-16.26.23-13.21-.36-26.43.16-39.64-.28-6.94-16.22-15.83-31.49-24.53-46.8-6.4-11.16-12.86-22.28-19.43-33.33l.32-2.27c-1.07-.64-2.12-1.26-3.17-1.89-3.23.56-6.29-.81-9.17-2.05-9.65-4.26-18.22-11.19-23.9-20.12-5.74-9.87-9.47-20.74-14.36-31.04-1.55 9.14-2.84 18.31-4.44 27.44-1.75 10.26-7.44 19.9-16.1 25.8-13.54 9.3-30.58 11.35-46.62 11.28-10.76.08-21.33-2.08-31.88-3.93 10.35 21.63 20.72 43.24 31.08 64.87 1.48 2.8 1.81 6.45 4.57 8.4 2.65 1.98 6.16 1.37 9.26 1.49 11.34.16 22.36-3.33 33.71-3.17-.17 1.78-.34 3.57-.5 5.37-7.08.46-14.18.29-21.27.13-11.61-.05-23.22.01-34.83-.02-11.09-24.69-21.76-49.57-31.35-74.88-.95-2.42-2.1-6.24 1.2-7.35 17.48-8.9 35.01-17.68 52.49-26.57.05-13.42-.02-26.83.25-40.24.23-5.26.27-10.53-.06-15.78-26.13-.55-53.79 5.8-73.86 23.37 1.22-11.91 4.36-23.84 10.77-34.04 3.8-6.23 9.16-11.24 13.97-16.66-7.32-2.84-14.7-5.8-22.52-6.91-20.65-3.32-42.08 1.56-60.11 11.88 5.87-10.92 13.3-21.35 23.6-28.5 7.35-4.91 14.72-9.79 21.92-14.93-10.98-3.59-21.85-7.81-33.35-9.38-27.62-4.25-55.88 1.77-81.25 12.78 9-12.54 22.32-21.67 37.04-26.14 12.93-4.26 26.66-4.44 40.1-5.55 7.94-.61 15.89-1.13 23.83-1.82-33.58-10.47-67.33-20.36-101.02-30.46 25.73-.22 51.47-.03 77.21-.1 10.71.12 21.67-.7 32.07 2.42 9.36 2.6 17.68 8.36 23.77 15.9 11.04 13.68 16.54 30.65 23.54 46.53 6.57 15.24 14.59 30.68 27.97 41.05 11.72 9.28 26.88 13.19 41.64 13.2 16.77.13 33.85-.2 50.06-5.01 5.24-1.46 10.42-3.67 14.36-7.52 7.69-7.34 11.08-18.09 11.87-28.46.02-1.99.76-3.82 1.75-5.5-.39-.42-1.18-1.26-1.58-1.68-.03-1.62-.07-3.23-.09-4.84-6.39 1.25-11.98-2.81-18.27-2.59-3.06-.05-6.08.5-9.08 1.05 2.65-6.04 5.23-12.6 10.64-16.74 4.33-3.45 8.65-6.9 12.93-10.41-10.83-.72-21.67-2.39-32.54-1.47-10.78.7-21.41 2.98-31.58 6.57 6.23-8.66 14.37-15.89 23.58-21.25 5.24-3.05 11.06-4.86 16.48-7.53-5.42-3.89-10.23-8.69-16.21-11.77-12.97-6.87-27.81-9.46-42.39-9.36 17.11-11.22 36.64-18.26 56.54-22.6-3.94-5.4-7.43-11.29-12.71-15.53-7.52-6.55-16.73-10.6-25.86-14.34 16.25-2.49 32.9-1.99 49.05 1.01-.03-4.97.37-10.01-.73-14.89-1.81-8.43-5.97-16.16-10.97-23.12 12.03 2.11 23.83 6.12 34.22 12.61 4.82 2.93 8.72 7.05 13.01 10.66 1.82-4.44 3.93-8.77 5.4-13.35 2.77-9.19 3.39-18.88 3.02-28.43m-23.49 68.12c-3.3 1.56-5.37 4.97-5.91 8.51-1.45 9.9 3.42 20.34 11.83 25.73 6.55 4.35 15.3 5.21 22.52 2.06 10.93-4.53 17.65-17.23 15.32-28.81-.82-4.06-4.07-7.61-8.21-8.35-6.46-1.34-12.42 3.43-18.88 2.14-5.45-.96-11.24-3.98-16.67-1.28z"/>
		<path d="M529.13 298.35c6.12 1.43 12.44 1.46 18.57.04-1.82 3.31-4.63 6.73-8.74 6.84-4.51.35-7.86-3.26-9.83-6.88zm-165.99 42.63c13.13 11.01 19.49 27.51 26.04 42.85 5.57 13.69 11.62 27.31 20.35 39.32-11.17-8.78-17.4-22.04-22.99-34.75-6.9-16.22-13.11-32.95-23.4-47.42zm96.87 207.96c7.2-5.08 12.96-12.02 16.96-19.85 8.56 10.26 20.02 17.97 32.7 22.16 9.4 16.03 18.76 32.09 27.81 48.33-7.45-.31-15.46 1.91-19.82 8.37-4.66.95-9.32 2.51-12.9 5.77-7 6.17-10.62 15.03-15.39 22.85-.52-4.39-.46-9.1-2.95-12.95-4.45-7.21-11.22-13.24-19.35-15.9-3.74-1.13-5.48-5.38-9.4-6.24-11.78-3.47-23.93.78-35.78 1.59 3.68-1.93 7.45-3.7 11.19-5.52-5.53-11.53-11.2-22.99-16.76-34.5 15.34-1.25 31.03-4.98 43.69-14.11zm107.65 1.43c2.13 1.07 2.57 3.52 3.45 5.51 6.17 16.05 13.11 31.81 18.93 47.99-1.42-1.71-2.4-3.71-3.15-5.78-6.26-15.96-13.3-31.63-19.23-47.72zm-169.15 12.2c5.73 10.11 10.28 20.86 15.55 31.22 1.56 3.23 3.29 6.39 4.48 9.78-2.93-3.09-4-7.36-6.01-11.02-4.61-10.03-9.89-19.76-14.02-29.98zm-38.55 53.18c9.63-2.07 18.92 2.25 27.93 5.04-9.49.55-19.05.81-28.52-.29.19-1.59.39-3.18.59-4.75zm171.07.01c9.64-2.1 18.95 2.22 27.95 5.06-9.5.49-19.05.79-28.52-.31.18-1.59.37-3.17.57-4.75z"/>
	</g>
	<g fill="#c3996f">
		<path fill="#c3996f" d="M517.97 175.66c14.35 10.21 29.6 19.7 40.96 33.42 16.32 18.68 24.92 42.71 29.19 66.84 7.75-4.68 16.81-8.07 26-6.75 8.34.96 14.99 6.49 22.06 10.49-7.91 5.31-16.09 10.19-24.2 15.19-5.91 3.58-10.86 8.86-13.05 15.51 14.7-2.69 30.09 2.77 40.77 12.97 5.12 4.94 10.24 9.87 15.35 14.82-8.06-.78-16.1-1.77-24.16-2.5-14.27-1.21-29.39 3.36-39.48 13.79-3.66 3.82-7.03 8.99-5.6 14.53.52 4.92 5.81 6.49 9.37 8.79 6.66 3.68 11.73 10 13.78 17.33 4.72 14.77-1.93 31.96-14.88 40.3 23.17 25.24 26.83 66.7 7.42 95.15-4.88 7.27-11.42 13.29-18.63 18.21 7.41 18.35 14.74 36.74 22.12 55.11-3.24 1.27-6.47 2.56-9.66 3.95 7.9-.84 15.72-2.56 23.69-2.68 4.23-.03 8.66.42 12.39 2.59 2.23 1.33 3.57 3.9 6.12 4.75 9.21 3.01 17.16 10.01 21.27 18.78 1.89 6.4 1.64 13.22 2.65 19.79-7.28-4.47-13.71-10.54-21.77-13.58-3.52-1.73-6.12 2.06-9.4 2.67-6.63 1.6-13.51 1.55-20.29 1.61-16.31-.36-32.63-.13-48.94-.2-11.56-.13-23.24 1.02-34.67-1.13-3.05-.53-5.79-2.03-8.36-3.67-12.93 4.4-24.21 12.41-36.37 18.49 1.38-2.44 2.76-4.86 4.13-7.29-6.41-3.94-12.15-9.88-19.87-10.99-2.77 1.22-5.27 3.13-8.34 3.58-10.42 1.83-21.05 1.05-31.57 1.01h-39.97c-10.21.08-20.52.77-30.62-1.1-3.07-.53-5.83-2-8.4-3.69-3.96 1.19-7.78 2.82-11.4 4.81-8.35 4.51-16.64 9.12-24.98 13.63 5.68-9.86 10.94-19.98 17.05-29.59 4.18-6.68 11.05-11.52 18.91-12.66 4.65-6.92 13.38-8.85 21.23-8.28-7.12-16.54-14.03-33.18-20.25-50.08-3.35-8.55-.34-19.51 8.08-23.87 15.07-7.73 30.23-15.28 45.34-22.95.04-10.18.05-20.36.2-30.54-17.84 2.12-36.37 7.55-49.52 20.4-8.17 7.73-11.6 18.71-16.51 28.52-1.64 3.52-3.27 7.04-4.95 10.54-1.59-20.49-5.4-41.19-1.72-61.68 1.91-11.65 5.92-22.98 12.13-33.05-15.68-1.86-31.78 1.57-45.62 9.09-8.84 4.74-16.76 11.04-23.82 18.14-7.64 7.6-15.24 15.25-22.91 22.83 7.84-21.94 13.86-44.78 25.6-65.07 5.48-9.62 12.47-18.37 20.85-25.63-27.75-3.99-56.06 3.13-80.79 15.64-9.4 4.58-17.72 10.96-26.47 16.61 2.46-10.6 3.62-21.7 8.65-31.51 9.34-19.92 27.15-35.19 47.7-42.69-46.64-13.91-93.53-26.95-140.42-39.99 74.88-.12 149.76-.09 224.64-.01 16.95-.23 34.48 4.8 47.1 16.51 15.16 13.73 22.57 33.35 30.33 51.75 5 12.35 10.96 24.41 19.27 34.89-3.84 2.82-7.74 5.55-11.57 8.38 11.79 7.57 26.23 7.94 39.78 7.49 13.13-.28 26.57-1.16 38.98-5.83 7.25-3.11 9.63-11.57 10.77-18.69-9.77-1.2-17.8 5.29-25.06 10.82-3.68 2.74-7.35 5.49-11.05 8.19 3.56-15.69 6.1-31.84 13.15-46.47-9.39 1.05-18.73 3.11-27.4 6.92-12.09 5.1-21.55 14.49-32.08 22.05 3.91-13.46 5.99-27.72 13.14-39.99 6.29-11.31 15.48-20.79 25.89-28.39-9.7-3.35-20.07-4.51-30.29-3.98-13.19.58-25.89 4.47-38.75 7.09 5.96-7.66 11.33-15.83 17.92-22.98 14.13-14.52 32.82-23.52 51.62-30.42-10-6.03-21.37-9.46-32.87-11.17-12.05-1.65-24.22-2.06-36.32-3.21 8.41-4.51 16.91-8.87 25.42-13.2 20.11-9.83 43.02-12.09 65.12-11.04-6.83-16.33-22.23-26.11-35.09-37.27 15.31.12 30.79-.82 45.9 2.22 12.24 2.14 23.82 6.81 34.9 12.29 1.31-10.39.6-21.02-2.12-31.13-2.15-7.87-4.55-15.68-6.75-23.53m24.9 38.73c.37 9.55-.25 19.24-3.02 28.43-1.47 4.58-3.58 8.91-5.4 13.35-4.29-3.61-8.19-7.73-13.01-10.66-10.39-6.49-22.19-10.5-34.22-12.61 5 6.96 9.16 14.69 10.97 23.12 1.1 4.88.7 9.92.73 14.89-16.15-3-32.8-3.5-49.05-1.01 9.13 3.74 18.34 7.79 25.86 14.34 5.28 4.24 8.77 10.13 12.71 15.53-19.9 4.34-39.43 11.38-56.54 22.6 14.58-.1 29.42 2.49 42.39 9.36 5.98 3.08 10.79 7.88 16.21 11.77-5.42 2.67-11.24 4.48-16.48 7.53-9.21 5.36-17.35 12.59-23.58 21.25 10.17-3.59 20.8-5.87 31.58-6.57 10.87-.92 21.71.75 32.54 1.47-4.28 3.51-8.6 6.96-12.93 10.41-5.41 4.14-7.99 10.7-10.64 16.74 3-.55 6.02-1.1 9.08-1.05 6.29-.22 11.88 3.84 18.27 2.59.02 1.61.06 3.22.09 4.84.4.42 1.19 1.26 1.58 1.68-.99 1.68-1.73 3.51-1.75 5.5-.79 10.37-4.18 21.12-11.87 28.46-3.94 3.85-9.12 6.06-14.36 7.52-16.21 4.81-33.29 5.14-50.06 5.01-14.76-.01-29.92-3.92-41.64-13.2-13.38-10.37-21.4-25.81-27.97-41.05-7-15.88-12.5-32.85-23.54-46.53-6.09-7.54-14.41-13.3-23.77-15.9-10.4-3.12-21.36-2.3-32.07-2.42-25.74.07-51.48-.12-77.21.1 33.69 10.1 67.44 19.99 101.02 30.46-7.94.69-15.89 1.21-23.83 1.82-13.44 1.11-27.17 1.29-40.1 5.55-14.72 4.47-28.04 13.6-37.04 26.14 25.37-11.01 53.63-17.03 81.25-12.78 11.5 1.57 22.37 5.79 33.35 9.38-7.2 5.14-14.57 10.02-21.92 14.93-10.3 7.15-17.73 17.58-23.6 28.5 18.03-10.32 39.46-15.2 60.11-11.88 7.82 1.11 15.2 4.07 22.52 6.91-4.81 5.42-10.17 10.43-13.97 16.66-6.41 10.2-9.55 22.13-10.77 34.04 20.07-17.57 47.73-23.92 73.86-23.37.33 5.25.29 10.52.06 15.78-.27 13.41-.2 26.82-.25 40.24-17.48 8.89-35.01 17.67-52.49 26.57-3.3 1.11-2.15 4.93-1.2 7.35 9.59 25.31 20.26 50.19 31.35 74.88 11.61.03 23.22-.03 34.83.02 7.09.16 14.19.33 21.27-.13.16-1.8.33-3.59.5-5.37-11.35-.16-22.37 3.33-33.71 3.17-3.1-.12-6.61.49-9.26-1.49-2.76-1.95-3.09-5.6-4.57-8.4-10.36-21.63-20.73-43.24-31.08-64.87 10.55 1.85 21.12 4.01 31.88 3.93 16.04.07 33.08-1.98 46.62-11.28 8.66-5.9 14.35-15.54 16.1-25.8 1.6-9.13 2.89-18.3 4.44-27.44 4.89 10.3 8.62 21.17 14.36 31.04 5.68 8.93 14.25 15.86 23.9 20.12 2.88 1.24 5.94 2.61 9.17 2.05 1.05.63 2.1 1.25 3.17 1.89l-.32 2.27c6.57 11.05 13.03 22.17 19.43 33.33 8.7 15.31 17.59 30.58 24.53 46.8 13.21.44 26.43-.08 39.64.28 5.41.16 10.84.07 16.26-.23.18-1.77.38-3.53.58-5.3-12.4-.26-24.46 3.79-36.88 3.1-3.51.31-7.58-1.24-8.67-4.87-1.92-6.21-4.67-12.11-7.06-18.14-9.01-21.87-17.86-43.82-26.98-65.63-1.95-6.13 5.73-11.95 11.16-8.53 4.98 3.83 8.86 8.9 13.39 13.24 8.7-4 16.53-10.08 21.92-18.06 9.28-13.5 11.63-30.93 8.42-46.79-2.64-12.9-9.05-25.44-19.54-33.67-4.51-3.65-10.23-5.49-14.43-9.55-6.34-5.57-10.2-13.21-14.12-20.53 4.53-2.47 9.05-4.94 13.61-7.37 3.68 6.52 6.74 14.05 13.35 18.19 2.96 2 6.99 2.01 9.97.03 8.59-5.52 11.92-18.45 5.98-27.03-3.66-4.61-9.82-6.01-14.05-9.97-6.82-5.78-8.82-15.53-7.46-24.04 1.86-9.27 8.47-16.57 15.36-22.63-1.27.66-2.53 1.31-3.77 1.98.16-9.96-.79-20.19 2.32-29.82 1.24-4.29 3.53-8.16 5.85-11.94-4.39 3.52-8.43 7.44-12.68 11.11-3.58-18.67-5.72-37.83-12.7-55.65-4.88-12.9-12.39-24.78-21.98-34.69M363.14 340.98c10.29 14.47 16.5 31.2 23.4 47.42 5.59 12.71 11.82 25.97 22.99 34.75-8.73-12.01-14.78-25.63-20.35-39.32-6.55-15.34-12.91-31.84-26.04-42.85m96.87 207.96c-12.66 9.13-28.35 12.86-43.69 14.11 5.56 11.51 11.23 22.97 16.76 34.5-3.74 1.82-7.51 3.59-11.19 5.52 11.85-.81 24-5.06 35.78-1.59 3.92.86 5.66 5.11 9.4 6.24 8.13 2.66 14.9 8.69 19.35 15.9 2.49 3.85 2.43 8.56 2.95 12.95 4.77-7.82 8.39-16.68 15.39-22.85 3.58-3.26 8.24-4.82 12.9-5.77 4.36-6.46 12.37-8.68 19.82-8.37-9.05-16.24-18.41-32.3-27.81-48.33-12.68-4.19-24.14-11.9-32.7-22.16-4 7.83-9.76 14.77-16.96 19.85m107.65 1.43c5.93 16.09 12.97 31.76 19.23 47.72.75 2.07 1.73 4.07 3.15 5.78-5.82-16.18-12.76-31.94-18.93-47.99-.88-1.99-1.32-4.44-3.45-5.51m-169.15 12.2c4.13 10.22 9.41 19.95 14.02 29.98 2.01 3.66 3.08 7.93 6.01 11.02-1.19-3.39-2.92-6.55-4.48-9.78-5.27-10.36-9.82-21.11-15.55-31.22m-38.55 53.18c-.2 1.57-.4 3.16-.59 4.75 9.47 1.1 19.03.84 28.52.29-9.01-2.79-18.3-7.11-27.93-5.04m171.07.01c-.2 1.58-.39 3.16-.57 4.75 9.47 1.1 19.02.8 28.52.31-9-2.84-18.31-7.16-27.95-5.06z"/>
		<path d="M519.38 282.51c5.43-2.7 11.22.32 16.67 1.28 6.46 1.29 12.42-3.48 18.88-2.14 4.14.74 7.39 4.29 8.21 8.35 2.33 11.58-4.39 24.28-15.32 28.81-7.22 3.15-15.97 2.29-22.52-2.06-8.41-5.39-13.28-15.83-11.83-25.73.54-3.54 2.61-6.95 5.91-8.51m9.75 15.84c1.97 3.62 5.32 7.23 9.83 6.88 4.11-.11 6.92-3.53 8.74-6.84-6.13 1.42-12.45 1.39-18.57-.04zM0 850.48c1.33.3 2.68.5 4.04.59 282.65-.1 565.31.04 847.96-.07v1H0v-1.52z"/>
	</g>
	<path fill="#55261a" d="M645.01 306.23c20.64-24.22 34.17-53.77 43.24-84.07 2.29 17.35 1.47 35.05-1.47 52.27 6.99 3.89 14.93 5.66 22.82 6.55-8.45 11.45-21.14 19.33-34.85 22.82-9.67 2.54-19.79 3.28-29.74 2.43z"/>
</svg>

