
<svg width="400" height="400" viewBox="0 0 300 300" xmlns="http://www.w3.org/2000/svg">
	<path fill="#744F44" d="M204.2 34.63c6.2 4.45 12.7 8.7 17.61 14.63 8.4 9.52 12.6 21.9 14.65 34.24 3.53-2.07 7.35-4.08 11.57-3.98 4.16-.11 7.68 2.38 11.1 4.41-6.6 4.71-15.82 7.6-18.16 16.31 6.22-1.28 12.9-.15 18.04 3.65 3.13 2.25 5.74 5.13 8.53 7.78-6.34-.62-12.9-1.98-19.14.01-5.42 1.67-10.93 5.07-13.13 10.52-1.27 3.61.94 6.96 4.27 8.3 7.25 3.46 9.56 13.07 6.16 20.02-1.36 3.35-4.08 5.84-6.99 7.85 11.51 12.01 13.67 32.03 4.7 46.09-2.49 4.05-6.13 7.2-9.98 9.91 3.65 9 7.16 18.06 10.84 27.05-1.81.72-3.61 1.44-5.41 2.17-3.55-8.88-7.08-17.78-10.63-26.66l-2.4.84c3.78 9.13 7.48 18.3 11.2 27.45 5.66-.35 11.23-1.85 16.92-1.64 3.39.02 5.68 2.87 8.62 4.11 3.59 1.68 6.81 4.45 8.43 8.12.78 2.45.74 5.06 1.03 7.6-3.44-2.12-6.59-5.46-10.75-5.91-2.96 1.17-5.97 2.35-9.21 2.21-11.67.07-23.34-.15-35.01.04-4.87-.01-10.11.31-14.37-2.5-5.53 1.79-10.39 5.06-15.5 7.75 2.82-4.76 5.01-10 8.7-14.18 2.31-2.68 6.25-2.74 8.72-5.2 2.43-2.49 6.04-2.29 9.23-2.39-4.88-8.53-9.66-17.11-14.69-25.56-6.63-2.26-12.55-6.37-16.91-11.86-2.77 6.05-7.71 11.02-13.83 13.68-5.39 2.55-11.36 3.42-17.24 3.98 2.91 5.78 5.68 11.62 8.48 17.45-1.74.81-3.49 1.64-5.23 2.46-2.45-5.13-4.97-10.22-7.39-15.37-1.1-2.1-1.84-4.94-4.71-5.08 3.27 7.55 6.98 14.91 10.53 22.33 5.75-.43 11.43-1.94 17.22-1.66 3.05.09 5.15 2.59 7.78 3.78 3.88 1.82 7.53 4.7 9.13 8.79.61 2.37.64 4.84.91 7.27-3.37-2.46-6.78-5-10.82-6.23-3 1.97-6.56 2.6-10.09 2.52-11.66 0-23.32-.14-34.99.03-4.56-.01-9.45.14-13.42-2.5-5.56 1.75-10.41 5.07-15.55 7.73 4.18-6.62 6.81-16.14 15.62-17.79 2.82-3.53 7.31-4.31 11.59-3.86-3.75-8.51-7.28-17.12-10.47-25.85-1.42-3.7-.63-8.56 3.05-10.63 7.51-4.32 15.6-7.61 23.04-12.05.58-5.51.08-11.09.3-16.62-9.01.99-18.35 3.51-25.2 9.76-5.18 4.55-7.1 11.4-10.1 17.36-.81-9.39-2.28-18.94-.31-28.3 1-5.75 3.39-11.13 6.37-16.11-9.15-1.11-18.64.79-26.45 5.76-7.12 4.26-12.43 10.75-18.37 16.41 5.11-15.13 9.83-31.78 22.93-42.12-18.99-3.09-38.45 3.43-53.67 14.71 1.38-10.33 6.18-20.34 14.45-26.88 4.4-3.69 9.64-6.18 15.07-7.93-21.72-6.6-43.63-12.59-65.42-18.95 30.19.11 60.37.03 90.56.06 8.95.51 18.34-1.05 26.87 2.46 6.76 2.59 12.12 7.93 15.74 14.11 6.46 10.74 9.08 23.48 16.86 33.47-1.58 1.12-3.15 2.24-4.73 3.37-7.93-10.13-10.7-23.02-17.16-33.97-2.83-4.94-7.09-8.97-12.19-11.52 10.94 10.78 13.38 26.62 21.39 39.22 4.28 6.94 11.97 11.62 20.18 11.73 9.04.15 18.45.46 27.05-2.79 4.44-1.73 5.54-6.95 6.13-11.15-7.04-.87-12.23 4.46-17.44 8.23 1.63-7.5 3.15-15.12 6.67-22.02-5.31.69-10.67 1.58-15.58 3.82-5.13 2.19-9.29 5.99-13.65 9.35 1.57-6.13 2.83-12.5 6.22-17.96 3.27-5.63 8.12-10.13 13.4-13.86-10.87-4.41-22.78-2.5-33.75.4 3.14-4.19 6.1-8.61 10.14-12.02 6.97-5.95 15.47-9.73 24.05-12.77-9.74-6.53-21.72-7.36-33.08-7.94 5.87-3.02 11.59-6.53 18.03-8.21 8.06-2.31 16.52-2.55 24.84-2.23-3.07-7.9-9.78-13.26-16.17-18.42 13.01-.65 26.57.89 37.88 7.83 1.72-9-.85-17.93-3.51-26.46m9.59 14.45c.54 7.37-.01 14.96-3.35 21.67-6.7-6.72-15.96-9.91-25.13-11.4 4.32 5.43 7.58 12 7.17 19.11-9.13-1.56-18.52-1.49-27.59.38 8.54 2.31 16.95 6.65 21.78 14.37-10.48 2.48-20.78 6.42-29.48 12.9 10.71-.69 22.11 1.64 30.15 9.17-8.42 3.03-15.71 8.83-20.44 16.44 9.97-4.25 21-5.13 31.69-3.79-2.11 1.76-4.36 3.38-6.23 5.4-2.12 2.47-3.19 5.61-4.58 8.5 4.79-1.28 9.61-.26 14.3.85.09 7.04-1.29 15.36-7.61 19.56-5.25 2.98-11.44 3.69-17.36 4.24-10.92.66-23.24 1.2-32.15-6.33-13.55-11.18-14.54-30.48-25.37-43.59-4.97-6.07-12.92-8.85-20.6-8.78-17.28-.01-34.56-.01-51.84.01 17.22 5.04 34.39 10.26 51.57 15.44-9.8 1.19-20.02.54-29.35 4.28-7.52 2.78-13.78 8.34-17.96 15.13 7.21-3.34 14.75-6.05 22.61-7.31 11.5-2.17 23.4-.54 34.25 3.68-3.65 2.84-7.71 5.11-11.31 8.02-5.06 4.2-8.39 9.99-11.35 15.76 12.02-8.06 27.91-10.61 41.4-4.73-2.82 3.22-5.77 6.42-7.61 10.34-2.63 5.22-3.58 11.08-4.13 16.85 9.56-9.49 23.45-13.1 36.61-13.02 0 8.77-.16 17.53-.12 26.29-8.41 4.36-16.96 8.47-25.31 12.94-2.62 1.05-1.32 3.95-.62 5.87 4.56 11.87 9.47 23.61 14.71 35.2-5.21-1.87-10.56-4-16.21-3.24-.3 1.4-.58 2.81-.86 4.22 10.81.83 21.68.11 32.52.34 5.73-.08 11.56.59 17.2-.78-.75-.16-2.26-.46-3.01-.61.1-.79.32-2.36.42-3.14-7.28-.43-14.66 2.83-21.8.93-5.55-11.34-10.84-22.83-16.33-34.21 9.22 1.85 18.88 2.47 28.08.12 5.83-1.49 11.55-4.62 14.81-9.84 3.47-5.47 3.46-12.19 4.6-18.37 1.93 4.13 3.44 8.48 5.76 12.43 3.76 6.25 10.25 10.57 17.29 12.23 7.41 13.26 15.55 26.14 21.88 39.97-5.29-1.85-10.71-4.09-16.44-3.25-.28 1.38-.56 2.77-.84 4.16 10.77.87 21.6.12 32.4.36 5.78-.08 11.65.59 17.34-.77-.75-.16-2.26-.47-3.01-.63.11-.78.31-2.35.41-3.13-7.2-.32-14.33 2.53-21.48 1.14-1.43-1.33-1.69-3.42-2.48-5.11-4.95-12.51-10.16-24.91-15.17-37.39-1.12-2.14 1.32-4.36 3.44-3.75 2.83 2.02 4.99 4.78 7.42 7.24 7.07-3.19 12.91-9.17 15.16-16.67 4.27-13.21-.39-30.15-13.31-36.73-4.41-2.36-6.92-6.85-9.23-11.08 1.69-.92 3.39-1.84 5.08-2.77 1.86 3.2 3.56 6.85 6.91 8.76 1.71 1.01 3.94.84 5.55-.27 4.78-3.13 6.51-10.56 2.78-15.11-2.59-2.5-6.38-3.55-8.44-6.62-2.86-4.53-2.25-10.74 1.05-14.89 3.88-5.54 10.19-8.49 16.35-10.74-4.96-.32-9.26 2.1-13.31 4.57.06-5.23-.32-10.78 2.16-15.58 1.65-3.8 5.06-6.31 8.11-8.93-4.97 1.97-8.97 5.55-12.81 9.16-1.84-10.24-3.17-20.78-7.76-30.23-2.64-5.74-6.6-10.73-10.98-15.24zm51.28 48.14c10.13-12.14 16.78-26.77 21.41-41.78 1.09 8.67.53 17.43-.79 26.03 3.6 1.64 7.45 2.6 11.34 3.27-7.5 9.6-20.15 13.37-31.96 12.48m15.39-12.26c-1.15 1.91-2.3 3.83-3.42 5.76 2.72-.89 5.4-1.9 8.03-3.01-1.53-.92-3.07-1.84-4.61-2.75z"/>
	<path fill="#744F44" d="M204.17 85.94c1.99-.57 4.02.37 6 .61 3.3.93 6.55-.57 9.82-.81 1.94 0 3.58 1.59 3.98 3.43 1.33 6.33-3.42 13.33-9.93 14.07-6.48.91-12.59-4.81-12.81-11.2-.31-2.36.5-5.22 2.94-6.1m2.45 6.1c1.18 2.63 3.12 5.84 6.49 5.47 3.05-.12 4.46-3.17 5.62-5.53-4 .91-8.1.9-12.11.06z"/>
</svg>

